<mxfile host="app.diagrams.net" agent="Mozilla/5.0 (Macintosh; Intel Mac OS X 10_15_7) AppleWebKit/537.36 (KHTML, like Gecko) Chrome/138.0.0.0 Safari/537.36" version="28.0.4">
  <diagram id="C5RBs43oDa-KdzZeNtuy" name="Page-1">
    <mxGraphModel dx="1011" dy="689" grid="1" gridSize="10" guides="1" tooltips="1" connect="1" arrows="1" fold="1" page="1" pageScale="1" pageWidth="827" pageHeight="1169" math="0" shadow="0">
      <root>
        <mxCell id="WIyWlLk6GJQsqaUBKTNV-0" />
        <mxCell id="WIyWlLk6GJQsqaUBKTNV-1" parent="WIyWlLk6GJQsqaUBKTNV-0" />
        <mxCell id="zeu1rRFiEk6a3NSjOaNw-5" value="" style="edgeStyle=orthogonalEdgeStyle;rounded=0;orthogonalLoop=1;jettySize=auto;html=1;" edge="1" parent="WIyWlLk6GJQsqaUBKTNV-1" source="zeu1rRFiEk6a3NSjOaNw-0" target="zeu1rRFiEk6a3NSjOaNw-4">
          <mxGeometry relative="1" as="geometry" />
        </mxCell>
        <mxCell id="zeu1rRFiEk6a3NSjOaNw-0" value="User" style="shape=umlActor;verticalLabelPosition=bottom;verticalAlign=top;html=1;outlineConnect=0;" vertex="1" parent="WIyWlLk6GJQsqaUBKTNV-1">
          <mxGeometry x="50" y="245" width="30" height="60" as="geometry" />
        </mxCell>
        <mxCell id="zeu1rRFiEk6a3NSjOaNw-7" value="" style="edgeStyle=orthogonalEdgeStyle;rounded=0;orthogonalLoop=1;jettySize=auto;html=1;" edge="1" parent="WIyWlLk6GJQsqaUBKTNV-1" source="zeu1rRFiEk6a3NSjOaNw-4" target="zeu1rRFiEk6a3NSjOaNw-6">
          <mxGeometry relative="1" as="geometry" />
        </mxCell>
        <mxCell id="zeu1rRFiEk6a3NSjOaNw-8" value="No" style="edgeLabel;html=1;align=center;verticalAlign=middle;resizable=0;points=[];" vertex="1" connectable="0" parent="zeu1rRFiEk6a3NSjOaNw-7">
          <mxGeometry x="-0.1796" relative="1" as="geometry">
            <mxPoint as="offset" />
          </mxGeometry>
        </mxCell>
        <mxCell id="zeu1rRFiEk6a3NSjOaNw-29" value="" style="edgeStyle=orthogonalEdgeStyle;rounded=0;orthogonalLoop=1;jettySize=auto;html=1;" edge="1" parent="WIyWlLk6GJQsqaUBKTNV-1" source="zeu1rRFiEk6a3NSjOaNw-4" target="zeu1rRFiEk6a3NSjOaNw-28">
          <mxGeometry relative="1" as="geometry" />
        </mxCell>
        <mxCell id="zeu1rRFiEk6a3NSjOaNw-30" value="Yes" style="edgeLabel;html=1;align=center;verticalAlign=middle;resizable=0;points=[];" vertex="1" connectable="0" parent="zeu1rRFiEk6a3NSjOaNw-29">
          <mxGeometry x="-0.1111" y="-3" relative="1" as="geometry">
            <mxPoint x="3" y="-3" as="offset" />
          </mxGeometry>
        </mxCell>
        <mxCell id="zeu1rRFiEk6a3NSjOaNw-4" value="have user account?" style="rhombus;whiteSpace=wrap;html=1;" vertex="1" parent="WIyWlLk6GJQsqaUBKTNV-1">
          <mxGeometry x="150" y="235" width="80" height="80" as="geometry" />
        </mxCell>
        <mxCell id="zeu1rRFiEk6a3NSjOaNw-10" value="" style="edgeStyle=orthogonalEdgeStyle;rounded=0;orthogonalLoop=1;jettySize=auto;html=1;" edge="1" parent="WIyWlLk6GJQsqaUBKTNV-1" source="zeu1rRFiEk6a3NSjOaNw-6" target="zeu1rRFiEk6a3NSjOaNw-9">
          <mxGeometry relative="1" as="geometry" />
        </mxCell>
        <mxCell id="zeu1rRFiEk6a3NSjOaNw-6" value="Sign Up Procedure" style="rounded=1;whiteSpace=wrap;html=1;" vertex="1" parent="WIyWlLk6GJQsqaUBKTNV-1">
          <mxGeometry x="130" y="385" width="120" height="60" as="geometry" />
        </mxCell>
        <mxCell id="zeu1rRFiEk6a3NSjOaNw-62" value="" style="edgeStyle=orthogonalEdgeStyle;rounded=0;orthogonalLoop=1;jettySize=auto;html=1;" edge="1" parent="WIyWlLk6GJQsqaUBKTNV-1" source="zeu1rRFiEk6a3NSjOaNw-9" target="zeu1rRFiEk6a3NSjOaNw-61">
          <mxGeometry relative="1" as="geometry" />
        </mxCell>
        <mxCell id="zeu1rRFiEk6a3NSjOaNw-9" value="Assign telegram id, Generate DB entry, Prompt to link google sheet" style="whiteSpace=wrap;html=1;rounded=1;" vertex="1" parent="WIyWlLk6GJQsqaUBKTNV-1">
          <mxGeometry x="125" y="505" width="130" height="80" as="geometry" />
        </mxCell>
        <mxCell id="zeu1rRFiEk6a3NSjOaNw-15" value="" style="edgeStyle=orthogonalEdgeStyle;rounded=0;orthogonalLoop=1;jettySize=auto;html=1;" edge="1" parent="WIyWlLk6GJQsqaUBKTNV-1" source="zeu1rRFiEk6a3NSjOaNw-11" target="zeu1rRFiEk6a3NSjOaNw-14">
          <mxGeometry relative="1" as="geometry" />
        </mxCell>
        <mxCell id="zeu1rRFiEk6a3NSjOaNw-16" value="No" style="edgeLabel;html=1;align=center;verticalAlign=middle;resizable=0;points=[];" vertex="1" connectable="0" parent="zeu1rRFiEk6a3NSjOaNw-15">
          <mxGeometry x="-0.125" relative="1" as="geometry">
            <mxPoint as="offset" />
          </mxGeometry>
        </mxCell>
        <mxCell id="zeu1rRFiEk6a3NSjOaNw-18" value="" style="edgeStyle=orthogonalEdgeStyle;rounded=0;orthogonalLoop=1;jettySize=auto;html=1;" edge="1" parent="WIyWlLk6GJQsqaUBKTNV-1" source="zeu1rRFiEk6a3NSjOaNw-11" target="zeu1rRFiEk6a3NSjOaNw-17">
          <mxGeometry relative="1" as="geometry" />
        </mxCell>
        <mxCell id="zeu1rRFiEk6a3NSjOaNw-19" value="Yes" style="edgeLabel;html=1;align=center;verticalAlign=middle;resizable=0;points=[];" vertex="1" connectable="0" parent="zeu1rRFiEk6a3NSjOaNw-18">
          <mxGeometry x="-0.0881" y="2" relative="1" as="geometry">
            <mxPoint as="offset" />
          </mxGeometry>
        </mxCell>
        <mxCell id="zeu1rRFiEk6a3NSjOaNw-11" value="Text Entry" style="rhombus;whiteSpace=wrap;html=1;" vertex="1" parent="WIyWlLk6GJQsqaUBKTNV-1">
          <mxGeometry x="420" y="235" width="80" height="80" as="geometry" />
        </mxCell>
        <mxCell id="zeu1rRFiEk6a3NSjOaNw-26" value="" style="edgeStyle=orthogonalEdgeStyle;rounded=0;orthogonalLoop=1;jettySize=auto;html=1;" edge="1" parent="WIyWlLk6GJQsqaUBKTNV-1" source="zeu1rRFiEk6a3NSjOaNw-14" target="zeu1rRFiEk6a3NSjOaNw-25">
          <mxGeometry relative="1" as="geometry" />
        </mxCell>
        <mxCell id="zeu1rRFiEk6a3NSjOaNw-27" value="Yes" style="edgeLabel;html=1;align=center;verticalAlign=middle;resizable=0;points=[];" vertex="1" connectable="0" parent="zeu1rRFiEk6a3NSjOaNw-26">
          <mxGeometry x="-0.1833" y="-1" relative="1" as="geometry">
            <mxPoint as="offset" />
          </mxGeometry>
        </mxCell>
        <mxCell id="zeu1rRFiEk6a3NSjOaNw-14" value="Image Entry" style="rhombus;whiteSpace=wrap;html=1;" vertex="1" parent="WIyWlLk6GJQsqaUBKTNV-1">
          <mxGeometry x="580" y="235" width="80" height="80" as="geometry" />
        </mxCell>
        <mxCell id="zeu1rRFiEk6a3NSjOaNw-23" value="" style="edgeStyle=orthogonalEdgeStyle;rounded=0;orthogonalLoop=1;jettySize=auto;html=1;" edge="1" parent="WIyWlLk6GJQsqaUBKTNV-1" source="zeu1rRFiEk6a3NSjOaNw-17" target="zeu1rRFiEk6a3NSjOaNw-22">
          <mxGeometry relative="1" as="geometry" />
        </mxCell>
        <mxCell id="zeu1rRFiEk6a3NSjOaNw-24" value="Log Entry to DB" style="edgeLabel;html=1;align=center;verticalAlign=middle;resizable=0;points=[];" vertex="1" connectable="0" parent="zeu1rRFiEk6a3NSjOaNw-23">
          <mxGeometry x="-0.075" y="2" relative="1" as="geometry">
            <mxPoint as="offset" />
          </mxGeometry>
        </mxCell>
        <mxCell id="zeu1rRFiEk6a3NSjOaNw-17" value="Use Categories to filter" style="rounded=1;whiteSpace=wrap;html=1;" vertex="1" parent="WIyWlLk6GJQsqaUBKTNV-1">
          <mxGeometry x="400" y="385" width="120" height="60" as="geometry" />
        </mxCell>
        <mxCell id="zeu1rRFiEk6a3NSjOaNw-22" value="DB" style="shape=cylinder3;whiteSpace=wrap;html=1;boundedLbl=1;backgroundOutline=1;size=15;" vertex="1" parent="WIyWlLk6GJQsqaUBKTNV-1">
          <mxGeometry x="430" y="505" width="60" height="80" as="geometry" />
        </mxCell>
        <mxCell id="zeu1rRFiEk6a3NSjOaNw-45" value="" style="edgeStyle=orthogonalEdgeStyle;rounded=0;orthogonalLoop=1;jettySize=auto;html=1;" edge="1" parent="WIyWlLk6GJQsqaUBKTNV-1" source="zeu1rRFiEk6a3NSjOaNw-25" target="zeu1rRFiEk6a3NSjOaNw-44">
          <mxGeometry relative="1" as="geometry" />
        </mxCell>
        <mxCell id="zeu1rRFiEk6a3NSjOaNw-25" value="GPT-4o prompt&amp;nbsp;&lt;div&gt;+ API call&lt;/div&gt;" style="rounded=1;whiteSpace=wrap;html=1;" vertex="1" parent="WIyWlLk6GJQsqaUBKTNV-1">
          <mxGeometry x="560" y="385" width="120" height="60" as="geometry" />
        </mxCell>
        <mxCell id="zeu1rRFiEk6a3NSjOaNw-31" value="" style="edgeStyle=orthogonalEdgeStyle;rounded=0;orthogonalLoop=1;jettySize=auto;html=1;" edge="1" parent="WIyWlLk6GJQsqaUBKTNV-1" source="zeu1rRFiEk6a3NSjOaNw-28" target="zeu1rRFiEk6a3NSjOaNw-11">
          <mxGeometry relative="1" as="geometry" />
        </mxCell>
        <mxCell id="zeu1rRFiEk6a3NSjOaNw-33" value="Yes" style="edgeLabel;html=1;align=center;verticalAlign=middle;resizable=0;points=[];" vertex="1" connectable="0" parent="zeu1rRFiEk6a3NSjOaNw-31">
          <mxGeometry x="-0.0622" y="2" relative="1" as="geometry">
            <mxPoint y="2" as="offset" />
          </mxGeometry>
        </mxCell>
        <mxCell id="zeu1rRFiEk6a3NSjOaNw-35" value="" style="edgeStyle=orthogonalEdgeStyle;rounded=0;orthogonalLoop=1;jettySize=auto;html=1;" edge="1" parent="WIyWlLk6GJQsqaUBKTNV-1" source="zeu1rRFiEk6a3NSjOaNw-28" target="zeu1rRFiEk6a3NSjOaNw-34">
          <mxGeometry relative="1" as="geometry" />
        </mxCell>
        <mxCell id="zeu1rRFiEk6a3NSjOaNw-28" value="Entry?" style="rhombus;whiteSpace=wrap;html=1;" vertex="1" parent="WIyWlLk6GJQsqaUBKTNV-1">
          <mxGeometry x="290" y="235" width="80" height="80" as="geometry" />
        </mxCell>
        <mxCell id="zeu1rRFiEk6a3NSjOaNw-39" value="" style="edgeStyle=orthogonalEdgeStyle;rounded=0;orthogonalLoop=1;jettySize=auto;html=1;" edge="1" parent="WIyWlLk6GJQsqaUBKTNV-1" source="zeu1rRFiEk6a3NSjOaNw-34" target="zeu1rRFiEk6a3NSjOaNw-38">
          <mxGeometry relative="1" as="geometry" />
        </mxCell>
        <mxCell id="zeu1rRFiEk6a3NSjOaNw-41" value="Yes" style="edgeLabel;html=1;align=center;verticalAlign=middle;resizable=0;points=[];" vertex="1" connectable="0" parent="zeu1rRFiEk6a3NSjOaNw-39">
          <mxGeometry x="-0.2224" relative="1" as="geometry">
            <mxPoint as="offset" />
          </mxGeometry>
        </mxCell>
        <mxCell id="zeu1rRFiEk6a3NSjOaNw-34" value="Summary?" style="rhombus;whiteSpace=wrap;html=1;" vertex="1" parent="WIyWlLk6GJQsqaUBKTNV-1">
          <mxGeometry x="290" y="75" width="80" height="80" as="geometry" />
        </mxCell>
        <mxCell id="zeu1rRFiEk6a3NSjOaNw-43" value="" style="edgeStyle=orthogonalEdgeStyle;rounded=0;orthogonalLoop=1;jettySize=auto;html=1;" edge="1" parent="WIyWlLk6GJQsqaUBKTNV-1" source="zeu1rRFiEk6a3NSjOaNw-38" target="zeu1rRFiEk6a3NSjOaNw-42">
          <mxGeometry relative="1" as="geometry" />
        </mxCell>
        <mxCell id="zeu1rRFiEk6a3NSjOaNw-38" value="Query DB" style="shape=cylinder3;whiteSpace=wrap;html=1;boundedLbl=1;backgroundOutline=1;size=15;" vertex="1" parent="WIyWlLk6GJQsqaUBKTNV-1">
          <mxGeometry x="430" y="75" width="60" height="80" as="geometry" />
        </mxCell>
        <mxCell id="zeu1rRFiEk6a3NSjOaNw-76" value="" style="edgeStyle=orthogonalEdgeStyle;rounded=0;orthogonalLoop=1;jettySize=auto;html=1;" edge="1" parent="WIyWlLk6GJQsqaUBKTNV-1" source="zeu1rRFiEk6a3NSjOaNw-42" target="zeu1rRFiEk6a3NSjOaNw-75">
          <mxGeometry relative="1" as="geometry" />
        </mxCell>
        <mxCell id="zeu1rRFiEk6a3NSjOaNw-42" value="Generate Display Weekly Summary" style="rounded=1;whiteSpace=wrap;html=1;" vertex="1" parent="WIyWlLk6GJQsqaUBKTNV-1">
          <mxGeometry x="530" y="85" width="120" height="60" as="geometry" />
        </mxCell>
        <mxCell id="zeu1rRFiEk6a3NSjOaNw-51" value="" style="edgeStyle=orthogonalEdgeStyle;rounded=0;orthogonalLoop=1;jettySize=auto;html=1;" edge="1" parent="WIyWlLk6GJQsqaUBKTNV-1" source="zeu1rRFiEk6a3NSjOaNw-44" target="zeu1rRFiEk6a3NSjOaNw-50">
          <mxGeometry relative="1" as="geometry" />
        </mxCell>
        <mxCell id="zeu1rRFiEk6a3NSjOaNw-44" value="Display Output for user to confirm" style="rounded=1;whiteSpace=wrap;html=1;" vertex="1" parent="WIyWlLk6GJQsqaUBKTNV-1">
          <mxGeometry x="560" y="490" width="120" height="60" as="geometry" />
        </mxCell>
        <mxCell id="zeu1rRFiEk6a3NSjOaNw-47" value="&lt;font style=&quot;font-size: 8px;&quot;&gt;Image + Text instruction on which part of the receipt to extract&lt;/font&gt;" style="ellipse;whiteSpace=wrap;html=1;" vertex="1" parent="WIyWlLk6GJQsqaUBKTNV-1">
          <mxGeometry x="600" y="170" width="120" height="65" as="geometry" />
        </mxCell>
        <mxCell id="zeu1rRFiEk6a3NSjOaNw-54" value="" style="edgeStyle=orthogonalEdgeStyle;rounded=0;orthogonalLoop=1;jettySize=auto;html=1;" edge="1" parent="WIyWlLk6GJQsqaUBKTNV-1" source="zeu1rRFiEk6a3NSjOaNw-50" target="zeu1rRFiEk6a3NSjOaNw-53">
          <mxGeometry relative="1" as="geometry" />
        </mxCell>
        <mxCell id="zeu1rRFiEk6a3NSjOaNw-55" value="No" style="edgeLabel;html=1;align=center;verticalAlign=middle;resizable=0;points=[];" vertex="1" connectable="0" parent="zeu1rRFiEk6a3NSjOaNw-54">
          <mxGeometry x="-0.4429" relative="1" as="geometry">
            <mxPoint as="offset" />
          </mxGeometry>
        </mxCell>
        <mxCell id="zeu1rRFiEk6a3NSjOaNw-59" value="" style="edgeStyle=orthogonalEdgeStyle;rounded=0;orthogonalLoop=1;jettySize=auto;html=1;" edge="1" parent="WIyWlLk6GJQsqaUBKTNV-1" source="zeu1rRFiEk6a3NSjOaNw-50" target="zeu1rRFiEk6a3NSjOaNw-58">
          <mxGeometry relative="1" as="geometry" />
        </mxCell>
        <mxCell id="zeu1rRFiEk6a3NSjOaNw-60" value="Yes, Log Entry (textual) to DB" style="edgeLabel;html=1;align=center;verticalAlign=middle;resizable=0;points=[];" vertex="1" connectable="0" parent="zeu1rRFiEk6a3NSjOaNw-59">
          <mxGeometry x="-0.1679" y="-1" relative="1" as="geometry">
            <mxPoint as="offset" />
          </mxGeometry>
        </mxCell>
        <mxCell id="zeu1rRFiEk6a3NSjOaNw-50" value="Good?" style="rhombus;whiteSpace=wrap;html=1;rounded=1;" vertex="1" parent="WIyWlLk6GJQsqaUBKTNV-1">
          <mxGeometry x="580" y="620" width="80" height="80" as="geometry" />
        </mxCell>
        <mxCell id="zeu1rRFiEk6a3NSjOaNw-56" style="edgeStyle=orthogonalEdgeStyle;rounded=0;orthogonalLoop=1;jettySize=auto;html=1;entryX=1;entryY=0.5;entryDx=0;entryDy=0;" edge="1" parent="WIyWlLk6GJQsqaUBKTNV-1" source="zeu1rRFiEk6a3NSjOaNw-53" target="zeu1rRFiEk6a3NSjOaNw-25">
          <mxGeometry relative="1" as="geometry">
            <Array as="points">
              <mxPoint x="750" y="415" />
            </Array>
          </mxGeometry>
        </mxCell>
        <mxCell id="zeu1rRFiEk6a3NSjOaNw-57" value="Iterate" style="edgeLabel;html=1;align=center;verticalAlign=middle;resizable=0;points=[];" vertex="1" connectable="0" parent="zeu1rRFiEk6a3NSjOaNw-56">
          <mxGeometry x="-0.3799" y="-1" relative="1" as="geometry">
            <mxPoint as="offset" />
          </mxGeometry>
        </mxCell>
        <mxCell id="zeu1rRFiEk6a3NSjOaNw-53" value="Follow-up prompt" style="whiteSpace=wrap;html=1;rounded=1;" vertex="1" parent="WIyWlLk6GJQsqaUBKTNV-1">
          <mxGeometry x="700" y="630" width="120" height="60" as="geometry" />
        </mxCell>
        <mxCell id="zeu1rRFiEk6a3NSjOaNw-58" value="DB" style="shape=cylinder3;whiteSpace=wrap;html=1;boundedLbl=1;backgroundOutline=1;size=15;" vertex="1" parent="WIyWlLk6GJQsqaUBKTNV-1">
          <mxGeometry x="590" y="740" width="60" height="80" as="geometry" />
        </mxCell>
        <mxCell id="zeu1rRFiEk6a3NSjOaNw-64" value="" style="edgeStyle=orthogonalEdgeStyle;rounded=0;orthogonalLoop=1;jettySize=auto;html=1;" edge="1" parent="WIyWlLk6GJQsqaUBKTNV-1" source="zeu1rRFiEk6a3NSjOaNw-61" target="zeu1rRFiEk6a3NSjOaNw-63">
          <mxGeometry relative="1" as="geometry" />
        </mxCell>
        <mxCell id="zeu1rRFiEk6a3NSjOaNw-65" value="No" style="edgeLabel;html=1;align=center;verticalAlign=middle;resizable=0;points=[];" vertex="1" connectable="0" parent="zeu1rRFiEk6a3NSjOaNw-64">
          <mxGeometry x="-0.0978" y="-2" relative="1" as="geometry">
            <mxPoint as="offset" />
          </mxGeometry>
        </mxCell>
        <mxCell id="zeu1rRFiEk6a3NSjOaNw-67" value="" style="edgeStyle=orthogonalEdgeStyle;rounded=0;orthogonalLoop=1;jettySize=auto;html=1;" edge="1" parent="WIyWlLk6GJQsqaUBKTNV-1" source="zeu1rRFiEk6a3NSjOaNw-61" target="zeu1rRFiEk6a3NSjOaNw-66">
          <mxGeometry relative="1" as="geometry" />
        </mxCell>
        <mxCell id="zeu1rRFiEk6a3NSjOaNw-68" value="Yes" style="edgeLabel;html=1;align=center;verticalAlign=middle;resizable=0;points=[];" vertex="1" connectable="0" parent="zeu1rRFiEk6a3NSjOaNw-67">
          <mxGeometry x="-0.2323" y="-2" relative="1" as="geometry">
            <mxPoint as="offset" />
          </mxGeometry>
        </mxCell>
        <mxCell id="zeu1rRFiEk6a3NSjOaNw-61" value="Completed google sheet linkage?" style="rhombus;whiteSpace=wrap;html=1;rounded=1;" vertex="1" parent="WIyWlLk6GJQsqaUBKTNV-1">
          <mxGeometry x="127.5" y="640" width="125" height="115" as="geometry" />
        </mxCell>
        <mxCell id="zeu1rRFiEk6a3NSjOaNw-63" value="Send periodic reminder" style="rounded=1;whiteSpace=wrap;html=1;" vertex="1" parent="WIyWlLk6GJQsqaUBKTNV-1">
          <mxGeometry x="294" y="667.5" width="120" height="60" as="geometry" />
        </mxCell>
        <mxCell id="zeu1rRFiEk6a3NSjOaNw-66" value="Send Confirmation" style="rounded=1;whiteSpace=wrap;html=1;" vertex="1" parent="WIyWlLk6GJQsqaUBKTNV-1">
          <mxGeometry x="130" y="800" width="120" height="60" as="geometry" />
        </mxCell>
        <mxCell id="zeu1rRFiEk6a3NSjOaNw-75" value="Export CSV" style="rounded=1;whiteSpace=wrap;html=1;" vertex="1" parent="WIyWlLk6GJQsqaUBKTNV-1">
          <mxGeometry x="690" y="85" width="120" height="60" as="geometry" />
        </mxCell>
      </root>
    </mxGraphModel>
  </diagram>
</mxfile>
